<svg width="794.238" height="87.892" viewBox="0 0 794.238 87.892" xmlns="http://www.w3.org/2000/svg"><g id="svgGroup" stroke-linecap="round" fill-rule="evenodd" font-size="9pt" stroke="#000" stroke-width="0.25mm" fill="black" style="stroke:#000;stroke-width:0.25mm;fill:black"><path d="M 95.459 57.96 L 95.459 66.797 L 129.102 66.797 L 129.102 70.313 L 95.459 70.313 L 95.459 73.829 L 129.102 73.829 L 129.102 77.344 L 95.459 77.344 L 95.459 80.86 L 129.102 80.86 L 129.102 84.376 L 91.943 84.376 L 91.943 14.063 L 129.102 14.063 L 129.102 17.579 L 95.459 17.579 L 95.459 21.094 L 129.102 21.094 L 129.102 24.61 L 95.459 24.61 L 95.459 28.126 L 129.102 28.126 L 129.102 31.641 L 95.459 31.641 L 95.459 40.381 L 127.148 40.381 L 127.148 43.897 L 95.459 43.897 L 95.459 47.413 L 127.148 47.413 L 127.148 50.928 L 95.459 50.928 L 95.459 54.444 L 127.148 54.444 L 127.148 57.96 L 95.459 57.96 Z M 318.994 57.96 L 318.994 66.797 L 352.637 66.797 L 352.637 70.313 L 318.994 70.313 L 318.994 73.829 L 352.637 73.829 L 352.637 77.344 L 318.994 77.344 L 318.994 80.86 L 352.637 80.86 L 352.637 84.376 L 315.479 84.376 L 315.479 14.063 L 352.637 14.063 L 352.637 17.579 L 318.994 17.579 L 318.994 21.094 L 352.637 21.094 L 352.637 24.61 L 318.994 24.61 L 318.994 28.126 L 352.637 28.126 L 352.637 31.641 L 318.994 31.641 L 318.994 40.381 L 350.684 40.381 L 350.684 43.897 L 318.994 43.897 L 318.994 47.413 L 350.684 47.413 L 350.684 50.928 L 318.994 50.928 L 318.994 54.444 L 350.684 54.444 L 350.684 57.96 L 318.994 57.96 Z M 237.793 68.36 L 237.793 64.844 L 258.984 64.844 Q 265.479 64.844 270.996 61.719 Q 276.514 58.594 279.81 53.028 Q 283.105 47.462 283.105 40.723 A 21.561 21.561 0 0 0 279.834 29.273 A 24.206 24.206 0 0 0 270.972 20.753 A 23.89 23.89 0 0 0 258.984 17.579 L 214.746 17.579 L 214.746 84.376 L 211.23 84.376 L 211.23 14.063 L 258.984 14.063 A 26.839 26.839 0 0 1 269.604 16.236 A 29.412 29.412 0 0 1 276.665 20.444 A 26.966 26.966 0 0 1 278.418 21.998 Q 282.129 25.587 284.375 30.518 A 24.364 24.364 0 0 1 286.621 40.723 A 31.531 31.531 0 0 1 285.66 48.667 A 25.531 25.531 0 0 1 282.715 55.64 A 25.625 25.625 0 0 1 272.217 65.333 L 279.59 84.376 L 275.83 84.376 L 268.848 66.749 A 33.624 33.624 0 0 1 267.61 67.133 Q 266.973 67.319 266.257 67.504 A 58.595 58.595 0 0 1 265.771 67.628 L 272.363 84.376 L 268.604 84.376 L 262.158 68.213 A 31.906 31.906 0 0 1 259.805 68.351 A 36.406 36.406 0 0 1 258.984 68.36 L 265.186 84.376 L 261.475 84.376 L 255.322 68.36 L 252.148 68.36 L 258.057 84.376 L 254.346 84.376 L 248.389 68.36 L 237.793 68.36 Z M 573.486 49.708 L 573.486 84.376 L 569.971 84.376 L 569.971 49.708 A 36.571 36.571 0 0 0 568.378 38.764 A 32.27 32.27 0 0 0 565.332 31.91 Q 560.693 24.073 552.686 19.8 A 36.646 36.646 0 0 0 537.402 15.603 A 43.918 43.918 0 0 0 534.814 15.528 A 34.035 34.035 0 0 0 517.48 20.069 Q 509.619 24.61 505.127 32.349 A 33.017 33.017 0 0 0 500.635 49.219 A 33.615 33.615 0 0 0 502.563 60.621 A 32.229 32.229 0 0 0 505.885 67.393 A 28.472 28.472 0 0 0 507.837 70.045 A 36.103 36.103 0 0 0 515.552 77.003 A 34.716 34.716 0 0 0 524.976 81.446 A 35.639 35.639 0 0 0 535.254 82.96 A 27.7 27.7 0 0 0 546.191 80.762 L 546.191 84.376 Q 540.771 86.28 535.059 86.28 A 40.183 40.183 0 0 1 523.56 84.62 Q 517.969 82.96 513.208 79.712 Q 508.447 76.465 504.834 72.046 Q 501.221 67.628 499.17 61.719 A 37.834 37.834 0 0 1 497.119 49.271 A 42.476 42.476 0 0 1 497.119 49.219 A 37.166 37.166 0 0 1 499.976 34.791 A 36.872 36.872 0 0 1 507.177 23.558 A 35.403 35.403 0 0 1 507.788 22.925 A 35.76 35.76 0 0 1 517.646 15.94 A 41.854 41.854 0 0 1 519.8 14.966 Q 526.855 12.012 534.814 12.012 A 42.623 42.623 0 0 1 548.195 14.087 A 40.141 40.141 0 0 1 550.049 14.747 A 38.269 38.269 0 0 1 559.644 20.043 A 35.033 35.033 0 0 1 562.354 22.339 A 33.853 33.853 0 0 1 569.703 32.49 A 39.697 39.697 0 0 1 570.508 34.278 Q 573.486 41.358 573.486 49.708 Z M 794.238 49.708 L 794.238 84.376 L 790.723 84.376 L 790.723 49.708 A 36.571 36.571 0 0 0 789.13 38.764 A 32.27 32.27 0 0 0 786.084 31.91 Q 781.445 24.073 773.438 19.8 A 36.646 36.646 0 0 0 758.154 15.603 A 43.918 43.918 0 0 0 755.566 15.528 A 34.035 34.035 0 0 0 738.232 20.069 Q 730.371 24.61 725.879 32.349 A 33.017 33.017 0 0 0 721.387 49.219 A 33.615 33.615 0 0 0 723.315 60.621 A 32.229 32.229 0 0 0 726.637 67.393 A 28.472 28.472 0 0 0 728.589 70.045 A 36.103 36.103 0 0 0 736.304 77.003 A 34.716 34.716 0 0 0 745.728 81.446 A 35.639 35.639 0 0 0 756.006 82.96 A 27.7 27.7 0 0 0 766.943 80.762 L 766.943 84.376 Q 761.523 86.28 755.811 86.28 A 40.183 40.183 0 0 1 744.312 84.62 Q 738.721 82.96 733.96 79.712 Q 729.199 76.465 725.586 72.046 Q 721.973 67.628 719.922 61.719 A 37.834 37.834 0 0 1 717.871 49.271 A 42.476 42.476 0 0 1 717.871 49.219 A 37.166 37.166 0 0 1 720.728 34.791 A 36.872 36.872 0 0 1 727.929 23.558 A 35.403 35.403 0 0 1 728.54 22.925 A 35.76 35.76 0 0 1 738.398 15.94 A 41.854 41.854 0 0 1 740.552 14.966 Q 747.607 12.012 755.566 12.012 A 42.623 42.623 0 0 1 768.947 14.087 A 40.141 40.141 0 0 1 770.801 14.747 A 38.269 38.269 0 0 1 780.396 20.043 A 35.033 35.033 0 0 1 783.105 22.339 A 33.853 33.853 0 0 1 790.455 32.49 A 39.697 39.697 0 0 1 791.26 34.278 Q 794.238 41.358 794.238 49.708 Z M 566.455 49.708 L 566.455 84.376 L 562.939 84.376 L 562.939 49.708 A 29.957 29.957 0 0 0 561.837 41.443 A 25.52 25.52 0 0 0 559.253 35.425 Q 555.566 29.2 549.17 25.879 A 29.744 29.744 0 0 0 537.804 22.681 A 36.148 36.148 0 0 0 534.814 22.559 Q 527.246 22.559 520.996 26.148 A 26.152 26.152 0 0 0 511.206 35.84 Q 507.666 41.944 507.666 49.219 Q 507.666 55.469 509.961 60.621 A 25.097 25.097 0 0 0 513.347 66.219 A 21.823 21.823 0 0 0 516.138 69.092 Q 520.02 72.413 524.976 74.244 A 29.699 29.699 0 0 0 535.352 76.075 A 27.138 27.138 0 0 0 546.191 73.78 L 546.191 77.344 A 32.688 32.688 0 0 1 539.14 79.173 A 28.26 28.26 0 0 1 535.254 79.444 A 32.253 32.253 0 0 1 519.727 75.635 A 29.318 29.318 0 0 1 508.398 64.844 A 29.358 29.358 0 0 1 504.155 49.758 A 34.855 34.855 0 0 1 504.15 49.219 A 29.627 29.627 0 0 1 506.519 37.501 A 30.24 30.24 0 0 1 512.439 28.394 A 29.001 29.001 0 0 1 512.939 27.881 A 29.542 29.542 0 0 1 521.26 22.081 A 34.373 34.373 0 0 1 522.705 21.436 A 31.03 31.03 0 0 1 534.814 19.044 Q 543.75 19.044 550.952 22.852 A 28.311 28.311 0 0 1 562.305 33.692 A 30.047 30.047 0 0 1 566.332 46.677 A 36.861 36.861 0 0 1 566.455 49.708 Z M 787.207 49.708 L 787.207 84.376 L 783.691 84.376 L 783.691 49.708 A 29.957 29.957 0 0 0 782.589 41.443 A 25.52 25.52 0 0 0 780.005 35.425 Q 776.318 29.2 769.922 25.879 A 29.744 29.744 0 0 0 758.556 22.681 A 36.148 36.148 0 0 0 755.566 22.559 Q 747.998 22.559 741.748 26.148 A 26.152 26.152 0 0 0 731.958 35.84 Q 728.418 41.944 728.418 49.219 Q 728.418 55.469 730.713 60.621 A 25.097 25.097 0 0 0 734.099 66.219 A 21.823 21.823 0 0 0 736.89 69.092 Q 740.771 72.413 745.728 74.244 A 29.699 29.699 0 0 0 756.104 76.075 A 27.138 27.138 0 0 0 766.943 73.78 L 766.943 77.344 A 32.688 32.688 0 0 1 759.892 79.173 A 28.26 28.26 0 0 1 756.006 79.444 A 32.253 32.253 0 0 1 740.479 75.635 A 29.318 29.318 0 0 1 729.15 64.844 A 29.358 29.358 0 0 1 724.906 49.758 A 34.855 34.855 0 0 1 724.902 49.219 A 29.627 29.627 0 0 1 727.271 37.501 A 30.24 30.24 0 0 1 733.191 28.394 A 29.001 29.001 0 0 1 733.691 27.881 A 29.542 29.542 0 0 1 742.012 22.081 A 34.373 34.373 0 0 1 743.457 21.436 A 31.03 31.03 0 0 1 755.566 19.044 Q 764.502 19.044 771.704 22.852 A 28.311 28.311 0 0 1 783.057 33.692 A 30.047 30.047 0 0 1 787.084 46.677 A 36.861 36.861 0 0 1 787.207 49.708 Z M 204.59 25.098 L 201.758 27.198 Q 196.826 21.094 189.673 17.579 Q 182.52 14.063 174.365 14.063 A 34.403 34.403 0 0 0 160.718 16.846 Q 154.199 19.629 149.487 24.341 A 35.04 35.04 0 0 0 142.348 34.764 A 39.988 39.988 0 0 0 141.992 35.572 A 34.403 34.403 0 0 0 139.209 49.219 A 34.403 34.403 0 0 0 141.992 62.867 Q 144.775 69.385 149.487 74.097 A 35.04 35.04 0 0 0 159.91 81.237 A 39.988 39.988 0 0 0 160.718 81.592 A 34.403 34.403 0 0 0 174.365 84.376 A 34.243 34.243 0 0 0 189.673 80.86 A 35.424 35.424 0 0 0 201.758 71.241 L 204.541 73.389 A 38.902 38.902 0 0 1 191.235 84.009 Q 183.35 87.891 174.365 87.891 A 37.613 37.613 0 0 1 159.351 84.815 A 39.571 39.571 0 0 1 148.709 78.148 A 37.127 37.127 0 0 1 147.021 76.563 A 38.767 38.767 0 0 1 139.162 65.12 A 44.226 44.226 0 0 1 138.77 64.234 A 37.613 37.613 0 0 1 135.693 49.219 A 37.613 37.613 0 0 1 138.77 34.205 A 39.571 39.571 0 0 1 145.436 23.563 A 37.127 37.127 0 0 1 147.021 21.876 A 38.767 38.767 0 0 1 158.464 14.016 A 44.226 44.226 0 0 1 159.351 13.624 A 37.613 37.613 0 0 1 174.365 10.547 Q 183.35 10.547 191.26 14.429 Q 199.17 18.311 204.59 25.098 Z M 237.793 61.329 L 237.793 57.813 L 258.984 57.813 A 16.879 16.879 0 0 0 271.045 53.028 A 15.974 15.974 0 0 0 276.04 41.939 A 21.523 21.523 0 0 0 276.074 40.723 A 14.675 14.675 0 0 0 272.149 30.707 A 20.066 20.066 0 0 0 270.947 29.468 Q 265.82 24.61 258.984 24.61 L 221.777 24.61 L 221.777 84.376 L 218.262 84.376 L 218.262 21.094 L 258.984 21.094 A 20.233 20.233 0 0 1 273.438 26.978 Q 279.59 32.862 279.59 40.723 A 20.866 20.866 0 0 1 278.022 48.907 A 19.718 19.718 0 0 1 273.511 55.421 A 20.114 20.114 0 0 1 258.984 61.329 L 237.793 61.329 Z M 29.395 38.672 L 34.961 38.672 A 26.054 26.054 0 0 1 41.495 39.446 A 18.084 18.084 0 0 1 50.464 44.727 A 20.899 20.899 0 0 1 55.988 57.836 A 27.414 27.414 0 0 1 56.055 59.766 Q 56.055 68.897 49.561 74.879 A 21.33 21.33 0 0 1 40.895 79.632 Q 37.717 80.553 33.936 80.783 A 42.586 42.586 0 0 1 31.348 80.86 A 50.314 50.314 0 0 1 21.09 79.844 A 44.131 44.131 0 0 1 16.748 78.712 A 36.401 36.401 0 0 1 10.711 76.218 A 27.614 27.614 0 0 1 5.469 72.657 L 8.203 70.46 Q 12.207 73.731 18.286 75.538 Q 24.365 77.344 31.348 77.344 A 34.57 34.57 0 0 0 37.312 76.863 Q 43.352 75.803 47.095 72.413 A 16.156 16.156 0 0 0 52.523 60.602 A 21.238 21.238 0 0 0 52.539 59.766 A 20.841 20.841 0 0 0 51.696 53.707 A 16.721 16.721 0 0 0 47.974 47.169 A 14.767 14.767 0 0 0 40.511 42.831 Q 37.965 42.188 34.912 42.188 L 29.395 42.188 A 20.673 20.673 0 0 1 25.287 41.807 Q 21.152 40.967 18.701 38.282 A 13.401 13.401 0 0 1 15.419 31.456 A 18.857 18.857 0 0 1 15.137 28.126 Q 15.137 21.876 19.556 17.969 A 13.859 13.859 0 0 1 24.268 15.299 Q 27.841 14.063 32.813 14.063 Q 39.014 14.063 44.336 15.504 Q 49.378 16.868 52.754 19.35 A 18.375 18.375 0 0 1 53.125 19.629 L 50.342 21.778 Q 44.238 17.579 32.813 17.579 A 29.677 29.677 0 0 0 28.98 17.809 Q 24.769 18.359 22.363 20.226 A 8.477 8.477 0 0 0 22.046 20.484 A 9.443 9.443 0 0 0 18.673 27.397 A 12.648 12.648 0 0 0 18.652 28.126 Q 18.652 32.516 20.769 35.303 A 9.247 9.247 0 0 0 21.167 35.792 A 7.564 7.564 0 0 0 24.29 37.883 Q 25.545 38.352 27.109 38.542 A 18.94 18.94 0 0 0 29.395 38.672 Z M 457.52 38.672 L 463.086 38.672 A 26.054 26.054 0 0 1 469.62 39.446 A 18.084 18.084 0 0 1 478.589 44.727 A 20.899 20.899 0 0 1 484.113 57.836 A 27.414 27.414 0 0 1 484.18 59.766 Q 484.18 68.897 477.686 74.879 A 21.33 21.33 0 0 1 469.02 79.632 Q 465.842 80.553 462.061 80.783 A 42.586 42.586 0 0 1 459.473 80.86 A 50.314 50.314 0 0 1 449.215 79.844 A 44.131 44.131 0 0 1 444.873 78.712 A 36.401 36.401 0 0 1 438.836 76.218 A 27.614 27.614 0 0 1 433.594 72.657 L 436.328 70.46 Q 440.332 73.731 446.411 75.538 Q 452.49 77.344 459.473 77.344 A 34.57 34.57 0 0 0 465.437 76.863 Q 471.477 75.803 475.22 72.413 A 16.156 16.156 0 0 0 480.648 60.602 A 21.238 21.238 0 0 0 480.664 59.766 A 20.841 20.841 0 0 0 479.821 53.707 A 16.721 16.721 0 0 0 476.099 47.169 A 14.767 14.767 0 0 0 468.636 42.831 Q 466.09 42.188 463.037 42.188 L 457.52 42.188 A 20.673 20.673 0 0 1 453.412 41.807 Q 449.277 40.967 446.826 38.282 A 13.401 13.401 0 0 1 443.544 31.456 A 18.857 18.857 0 0 1 443.262 28.126 Q 443.262 21.876 447.681 17.969 A 13.859 13.859 0 0 1 452.393 15.299 Q 455.966 14.063 460.938 14.063 Q 467.139 14.063 472.461 15.504 Q 477.503 16.868 480.879 19.35 A 18.375 18.375 0 0 1 481.25 19.629 L 478.467 21.778 Q 472.363 17.579 460.938 17.579 A 29.677 29.677 0 0 0 457.105 17.809 Q 452.894 18.359 450.488 20.226 A 8.477 8.477 0 0 0 450.171 20.484 A 9.443 9.443 0 0 0 446.798 27.397 A 12.648 12.648 0 0 0 446.777 28.126 Q 446.777 32.516 448.894 35.303 A 9.247 9.247 0 0 0 449.292 35.792 A 7.564 7.564 0 0 0 452.415 37.883 Q 453.67 38.352 455.234 38.542 A 18.94 18.94 0 0 0 457.52 38.672 Z M 29.395 45.704 L 34.766 45.704 A 20.425 20.425 0 0 1 38.873 46.09 Q 41.312 46.591 43.165 47.743 A 10.609 10.609 0 0 1 45.459 49.659 Q 49.023 53.614 49.023 59.766 Q 49.023 66.016 44.604 69.922 A 13.859 13.859 0 0 1 39.892 72.593 Q 36.319 73.829 31.348 73.829 A 47.248 47.248 0 0 1 23.93 73.266 A 39.979 39.979 0 0 1 19.8 72.388 A 30.479 30.479 0 0 1 15.49 70.893 Q 12.94 69.776 10.986 68.262 L 13.77 66.114 Q 18.13 69.114 25.231 69.97 A 51.181 51.181 0 0 0 31.348 70.313 A 29.677 29.677 0 0 0 35.18 70.083 Q 39.391 69.533 41.798 67.666 A 8.477 8.477 0 0 0 42.114 67.408 A 9.443 9.443 0 0 0 45.487 60.495 A 12.648 12.648 0 0 0 45.508 59.766 A 14.381 14.381 0 0 0 45.151 56.471 A 9.944 9.944 0 0 0 42.969 52.125 A 7.668 7.668 0 0 0 39.78 49.998 Q 38.529 49.536 36.979 49.348 A 18.848 18.848 0 0 0 34.717 49.219 L 29.395 49.219 Q 19.385 49.219 13.745 43.238 A 20.513 20.513 0 0 1 8.23 30.767 A 27.456 27.456 0 0 1 8.105 28.126 Q 8.105 18.995 14.6 13.013 A 21.33 21.33 0 0 1 23.265 8.26 Q 26.443 7.339 30.225 7.109 A 42.586 42.586 0 0 1 32.813 7.032 A 50.145 50.145 0 0 1 43.058 8.047 A 43.765 43.765 0 0 1 47.388 9.18 A 36.331 36.331 0 0 1 53.406 11.674 A 27.7 27.7 0 0 1 58.643 15.235 L 55.908 17.432 A 25.094 25.094 0 0 0 50.795 14.234 A 34.27 34.27 0 0 0 45.85 12.354 Q 39.795 10.547 32.813 10.547 A 34.57 34.57 0 0 0 26.848 11.029 Q 20.808 12.089 17.065 15.479 A 16.156 16.156 0 0 0 11.637 27.29 A 21.238 21.238 0 0 0 11.621 28.126 A 20.96 20.96 0 0 0 12.436 34.105 A 16.581 16.581 0 0 0 16.211 40.748 A 14.821 14.821 0 0 0 23.512 45.007 Q 25.923 45.638 28.795 45.698 A 29.081 29.081 0 0 0 29.395 45.704 Z M 457.52 45.704 L 462.891 45.704 A 20.425 20.425 0 0 1 466.998 46.09 Q 469.437 46.591 471.29 47.743 A 10.609 10.609 0 0 1 473.584 49.659 Q 477.148 53.614 477.148 59.766 Q 477.148 66.016 472.729 69.922 A 13.859 13.859 0 0 1 468.017 72.593 Q 464.444 73.829 459.473 73.829 A 47.248 47.248 0 0 1 452.055 73.266 A 39.979 39.979 0 0 1 447.925 72.388 A 30.479 30.479 0 0 1 443.615 70.893 Q 441.065 69.776 439.111 68.262 L 441.895 66.114 Q 446.255 69.114 453.356 69.97 A 51.181 51.181 0 0 0 459.473 70.313 A 29.677 29.677 0 0 0 463.305 70.083 Q 467.516 69.533 469.923 67.666 A 8.477 8.477 0 0 0 470.239 67.408 A 9.443 9.443 0 0 0 473.612 60.495 A 12.648 12.648 0 0 0 473.633 59.766 A 14.381 14.381 0 0 0 473.276 56.471 A 9.944 9.944 0 0 0 471.094 52.125 A 7.668 7.668 0 0 0 467.905 49.998 Q 466.654 49.536 465.104 49.348 A 18.848 18.848 0 0 0 462.842 49.219 L 457.52 49.219 Q 447.51 49.219 441.87 43.238 A 20.513 20.513 0 0 1 436.355 30.767 A 27.456 27.456 0 0 1 436.23 28.126 Q 436.23 18.995 442.725 13.013 A 21.33 21.33 0 0 1 451.39 8.26 Q 454.568 7.339 458.35 7.109 A 42.586 42.586 0 0 1 460.938 7.032 A 50.145 50.145 0 0 1 471.183 8.047 A 43.765 43.765 0 0 1 475.513 9.18 A 36.331 36.331 0 0 1 481.531 11.674 A 27.7 27.7 0 0 1 486.768 15.235 L 484.033 17.432 A 25.094 25.094 0 0 0 478.92 14.234 A 34.27 34.27 0 0 0 473.975 12.354 Q 467.92 10.547 460.938 10.547 A 34.57 34.57 0 0 0 454.973 11.029 Q 448.933 12.089 445.19 15.479 A 16.156 16.156 0 0 0 439.762 27.29 A 21.238 21.238 0 0 0 439.746 28.126 A 20.96 20.96 0 0 0 440.561 34.105 A 16.581 16.581 0 0 0 444.336 40.748 A 14.821 14.821 0 0 0 451.637 45.007 Q 454.048 45.638 456.92 45.698 A 29.081 29.081 0 0 0 457.52 45.704 Z M 35.303 35.157 L 29.395 35.157 Q 25.635 35.157 23.975 33.228 Q 22.314 31.299 22.314 28.126 Q 22.314 21.094 32.813 21.094 A 53.608 53.608 0 0 1 37.974 21.326 Q 43.388 21.851 46.816 23.568 A 14.162 14.162 0 0 1 47.656 24.024 L 44.824 26.172 A 12.007 12.007 0 0 0 42.643 25.453 Q 40.278 24.886 36.654 24.701 A 75.371 75.371 0 0 0 32.813 24.61 A 29.884 29.884 0 0 0 30.996 24.661 Q 28.338 24.824 27.224 25.506 A 2.656 2.656 0 0 0 27.173 25.538 A 3.337 3.337 0 0 0 26.295 26.336 Q 25.768 27.041 25.735 27.997 A 3.73 3.73 0 0 0 25.732 28.126 A 5.695 5.695 0 0 0 25.817 29.136 Q 25.919 29.703 26.145 30.152 A 2.874 2.874 0 0 0 26.514 30.713 A 2.175 2.175 0 0 0 27.325 31.297 Q 28.033 31.605 29.134 31.637 A 8.95 8.95 0 0 0 29.395 31.641 L 35.449 31.641 A 33.337 33.337 0 0 1 42.272 32.313 A 27.17 27.17 0 0 1 47.339 33.887 A 25.498 25.498 0 0 1 52.967 37.131 A 21.868 21.868 0 0 1 56.055 40.015 A 27.267 27.267 0 0 1 61.279 48.951 A 31.486 31.486 0 0 1 63.064 58.514 A 36.033 36.033 0 0 1 63.086 59.766 Q 63.086 64.454 61.768 68.653 Q 60.449 72.852 57.788 76.368 A 27.401 27.401 0 0 1 51.392 82.447 A 26.873 26.873 0 0 1 46.457 85.095 A 34.768 34.768 0 0 1 42.505 86.451 A 39.102 39.102 0 0 1 35.018 87.751 A 46.932 46.932 0 0 1 31.348 87.891 A 55.061 55.061 0 0 1 17.885 86.284 A 49.661 49.661 0 0 1 13.696 85.035 A 42.622 42.622 0 0 1 5.945 81.485 A 33.883 33.883 0 0 1 0 77.051 L 2.832 74.952 A 31.37 31.37 0 0 0 10.04 79.775 A 40.73 40.73 0 0 0 15.308 81.91 A 50.014 50.014 0 0 0 28.703 84.315 A 57.584 57.584 0 0 0 31.348 84.376 A 40.049 40.049 0 0 0 38.09 83.831 A 31.679 31.679 0 0 0 43.433 82.447 A 27.978 27.978 0 0 0 48.335 80.168 A 21.649 21.649 0 0 0 52.319 77.149 Q 55.811 73.78 57.69 69.337 A 24.142 24.142 0 0 0 59.563 60.404 A 27.624 27.624 0 0 0 59.57 59.766 A 29.088 29.088 0 0 0 58.606 52.163 A 25.186 25.186 0 0 0 56.836 47.486 A 21.472 21.472 0 0 0 49.198 39.01 A 25.843 25.843 0 0 0 48.511 38.575 A 23.074 23.074 0 0 0 39.866 35.491 A 30.164 30.164 0 0 0 35.303 35.157 Z M 463.428 35.157 L 457.52 35.157 Q 453.76 35.157 452.1 33.228 Q 450.439 31.299 450.439 28.126 Q 450.439 21.094 460.938 21.094 A 53.608 53.608 0 0 1 466.099 21.326 Q 471.513 21.851 474.941 23.568 A 14.162 14.162 0 0 1 475.781 24.024 L 472.949 26.172 A 12.007 12.007 0 0 0 470.768 25.453 Q 468.403 24.886 464.779 24.701 A 75.371 75.371 0 0 0 460.938 24.61 A 29.884 29.884 0 0 0 459.121 24.661 Q 456.463 24.824 455.349 25.506 A 2.656 2.656 0 0 0 455.298 25.538 A 3.337 3.337 0 0 0 454.42 26.336 Q 453.893 27.041 453.86 27.997 A 3.73 3.73 0 0 0 453.857 28.126 A 5.695 5.695 0 0 0 453.942 29.136 Q 454.044 29.703 454.27 30.152 A 2.874 2.874 0 0 0 454.639 30.713 A 2.175 2.175 0 0 0 455.45 31.297 Q 456.158 31.605 457.259 31.637 A 8.95 8.95 0 0 0 457.52 31.641 L 463.574 31.641 A 33.337 33.337 0 0 1 470.397 32.313 A 27.17 27.17 0 0 1 475.464 33.887 A 25.498 25.498 0 0 1 481.092 37.131 A 21.868 21.868 0 0 1 484.18 40.015 A 27.267 27.267 0 0 1 489.404 48.951 A 31.486 31.486 0 0 1 491.189 58.514 A 36.033 36.033 0 0 1 491.211 59.766 Q 491.211 64.454 489.893 68.653 Q 488.574 72.852 485.913 76.368 A 27.401 27.401 0 0 1 479.517 82.447 A 26.873 26.873 0 0 1 474.582 85.095 A 34.768 34.768 0 0 1 470.63 86.451 A 39.102 39.102 0 0 1 463.143 87.751 A 46.932 46.932 0 0 1 459.473 87.891 A 55.061 55.061 0 0 1 446.01 86.284 A 49.661 49.661 0 0 1 441.821 85.035 A 42.622 42.622 0 0 1 434.07 81.485 A 33.883 33.883 0 0 1 428.125 77.051 L 430.957 74.952 A 31.37 31.37 0 0 0 438.165 79.775 A 40.73 40.73 0 0 0 443.433 81.91 A 50.014 50.014 0 0 0 456.828 84.315 A 57.584 57.584 0 0 0 459.473 84.376 A 40.049 40.049 0 0 0 466.215 83.831 A 31.679 31.679 0 0 0 471.558 82.447 A 27.978 27.978 0 0 0 476.46 80.168 A 21.649 21.649 0 0 0 480.444 77.149 Q 483.936 73.78 485.815 69.337 A 24.142 24.142 0 0 0 487.688 60.404 A 27.624 27.624 0 0 0 487.695 59.766 A 29.088 29.088 0 0 0 486.731 52.163 A 25.186 25.186 0 0 0 484.961 47.486 A 21.472 21.472 0 0 0 477.323 39.01 A 25.843 25.843 0 0 0 476.636 38.575 A 23.074 23.074 0 0 0 467.991 35.491 A 30.164 30.164 0 0 0 463.428 35.157 Z M 29.395 52.735 L 34.766 52.735 Q 38.525 52.735 40.186 54.688 Q 41.846 56.641 41.846 59.766 Q 41.846 66.797 31.348 66.797 A 54.076 54.076 0 0 1 26.162 66.566 Q 20.754 66.043 17.331 64.341 A 14.139 14.139 0 0 1 16.455 63.868 L 19.287 61.719 A 11.989 11.989 0 0 0 21.472 62.439 Q 23.843 63.005 27.486 63.191 A 76.162 76.162 0 0 0 31.348 63.282 A 29.884 29.884 0 0 0 33.164 63.231 Q 35.822 63.068 36.936 62.386 A 2.656 2.656 0 0 0 36.987 62.354 A 3.337 3.337 0 0 0 37.865 61.555 Q 38.393 60.851 38.426 59.895 A 3.73 3.73 0 0 0 38.428 59.766 Q 38.428 58.432 37.876 57.55 A 3.006 3.006 0 0 0 37.622 57.203 Q 36.816 56.251 34.668 56.251 L 29.395 56.251 A 35.621 35.621 0 0 1 22.317 55.575 A 28.966 28.966 0 0 1 17.212 54.053 A 26.063 26.063 0 0 1 11.722 51.068 A 21.777 21.777 0 0 1 8.276 47.999 Q 4.785 44.141 2.93 39.063 A 30.993 30.993 0 0 1 1.12 29.938 A 35.901 35.901 0 0 1 1.074 28.126 Q 1.074 23.438 2.393 19.239 Q 3.711 15.04 6.372 11.524 Q 9.033 8.008 12.769 5.445 A 26.873 26.873 0 0 1 17.703 2.797 A 34.768 34.768 0 0 1 21.655 1.441 A 39.102 39.102 0 0 1 29.142 0.141 A 46.932 46.932 0 0 1 32.813 0.001 A 55.011 55.011 0 0 1 45.995 1.541 A 49.363 49.363 0 0 1 50.439 2.857 A 42.479 42.479 0 0 1 58.278 6.469 A 33.934 33.934 0 0 1 64.111 10.84 L 61.279 12.94 A 31.445 31.445 0 0 0 54.081 8.116 A 40.644 40.644 0 0 0 48.828 5.982 A 49.708 49.708 0 0 0 35.587 3.583 A 57.465 57.465 0 0 0 32.813 3.516 A 40.049 40.049 0 0 0 26.07 4.061 A 31.679 31.679 0 0 0 20.728 5.445 A 27.978 27.978 0 0 0 15.825 7.723 A 21.649 21.649 0 0 0 11.841 10.743 Q 8.35 14.112 6.47 18.555 A 24.142 24.142 0 0 0 4.597 27.487 A 27.624 27.624 0 0 0 4.59 28.126 A 29.294 29.294 0 0 0 5.52 35.629 A 25.033 25.033 0 0 0 7.373 40.528 Q 10.156 46.046 15.869 49.39 A 24.102 24.102 0 0 0 24.271 52.34 A 31.989 31.989 0 0 0 29.395 52.735 Z M 457.52 52.735 L 462.891 52.735 Q 466.65 52.735 468.311 54.688 Q 469.971 56.641 469.971 59.766 Q 469.971 66.797 459.473 66.797 A 54.076 54.076 0 0 1 454.287 66.566 Q 448.879 66.043 445.456 64.341 A 14.139 14.139 0 0 1 444.58 63.868 L 447.412 61.719 A 11.989 11.989 0 0 0 449.597 62.439 Q 451.968 63.005 455.611 63.191 A 76.162 76.162 0 0 0 459.473 63.282 A 29.884 29.884 0 0 0 461.289 63.231 Q 463.947 63.068 465.061 62.386 A 2.656 2.656 0 0 0 465.112 62.354 A 3.337 3.337 0 0 0 465.99 61.555 Q 466.518 60.851 466.551 59.895 A 3.73 3.73 0 0 0 466.553 59.766 Q 466.553 58.432 466.001 57.55 A 3.006 3.006 0 0 0 465.747 57.203 Q 464.941 56.251 462.793 56.251 L 457.52 56.251 A 35.621 35.621 0 0 1 450.442 55.575 A 28.966 28.966 0 0 1 445.337 54.053 A 26.063 26.063 0 0 1 439.847 51.068 A 21.777 21.777 0 0 1 436.401 47.999 Q 432.91 44.141 431.055 39.063 A 30.993 30.993 0 0 1 429.245 29.938 A 35.901 35.901 0 0 1 429.199 28.126 Q 429.199 23.438 430.518 19.239 Q 431.836 15.04 434.497 11.524 Q 437.158 8.008 440.894 5.445 A 26.873 26.873 0 0 1 445.828 2.797 A 34.768 34.768 0 0 1 449.78 1.441 A 39.102 39.102 0 0 1 457.267 0.141 A 46.932 46.932 0 0 1 460.938 0.001 A 55.011 55.011 0 0 1 474.12 1.541 A 49.363 49.363 0 0 1 478.564 2.857 A 42.479 42.479 0 0 1 486.403 6.469 A 33.934 33.934 0 0 1 492.236 10.84 L 489.404 12.94 A 31.445 31.445 0 0 0 482.206 8.116 A 40.644 40.644 0 0 0 476.953 5.982 A 49.708 49.708 0 0 0 463.712 3.583 A 57.465 57.465 0 0 0 460.938 3.516 A 40.049 40.049 0 0 0 454.195 4.061 A 31.679 31.679 0 0 0 448.853 5.445 A 27.978 27.978 0 0 0 443.95 7.723 A 21.649 21.649 0 0 0 439.966 10.743 Q 436.475 14.112 434.595 18.555 A 24.142 24.142 0 0 0 432.722 27.487 A 27.624 27.624 0 0 0 432.715 28.126 A 29.294 29.294 0 0 0 433.645 35.629 A 25.033 25.033 0 0 0 435.498 40.528 Q 438.281 46.046 443.994 49.39 A 24.102 24.102 0 0 0 452.396 52.34 A 31.989 31.989 0 0 0 457.52 52.735 Z M 559.424 49.708 L 559.424 84.376 L 555.908 84.376 L 555.908 49.708 A 23.343 23.343 0 0 0 555.077 43.318 A 17.567 17.567 0 0 0 550 35.035 A 20.308 20.308 0 0 0 538.978 29.889 A 27.994 27.994 0 0 0 534.814 29.59 A 21.242 21.242 0 0 0 527.155 30.93 A 19.198 19.198 0 0 0 520.459 35.303 A 18.829 18.829 0 0 0 514.699 48.964 A 23.191 23.191 0 0 0 514.697 49.219 A 24.575 24.575 0 0 0 515.186 54.222 A 19.789 19.789 0 0 0 516.431 58.155 A 18.086 18.086 0 0 0 518.624 61.916 A 15.016 15.016 0 0 0 521.143 64.503 Q 524.121 66.895 527.808 68.14 Q 531.494 69.385 535.596 69.385 A 22.849 22.849 0 0 0 546.191 66.797 L 546.191 70.508 A 27.878 27.878 0 0 1 537.39 72.641 A 26.193 26.193 0 0 1 535.547 72.706 Q 530.713 72.706 526.367 71.216 A 24.248 24.248 0 0 1 518.604 66.871 A 19.016 19.016 0 0 1 514.273 61.625 A 23.334 23.334 0 0 1 513.184 59.449 A 23.788 23.788 0 0 1 511.358 52.486 A 29.507 29.507 0 0 1 511.182 49.219 A 22.205 22.205 0 0 1 517.782 33.05 A 26.804 26.804 0 0 1 517.993 32.837 A 22.886 22.886 0 0 1 534.502 26.076 A 29.416 29.416 0 0 1 534.814 26.075 A 29.651 29.651 0 0 1 542.213 26.966 A 24.933 24.933 0 0 1 547.412 28.931 Q 552.979 31.788 556.201 37.208 A 22.981 22.981 0 0 1 559.258 46.585 A 28.833 28.833 0 0 1 559.424 49.708 Z M 780.176 49.708 L 780.176 84.376 L 776.66 84.376 L 776.66 49.708 A 23.343 23.343 0 0 0 775.829 43.318 A 17.567 17.567 0 0 0 770.752 35.035 A 20.308 20.308 0 0 0 759.73 29.889 A 27.994 27.994 0 0 0 755.566 29.59 A 21.242 21.242 0 0 0 747.907 30.93 A 19.198 19.198 0 0 0 741.211 35.303 A 18.829 18.829 0 0 0 735.451 48.964 A 23.191 23.191 0 0 0 735.449 49.219 A 24.575 24.575 0 0 0 735.938 54.222 A 19.789 19.789 0 0 0 737.183 58.155 A 18.086 18.086 0 0 0 739.376 61.916 A 15.016 15.016 0 0 0 741.895 64.503 Q 744.873 66.895 748.56 68.14 Q 752.246 69.385 756.348 69.385 A 22.849 22.849 0 0 0 766.943 66.797 L 766.943 70.508 A 27.878 27.878 0 0 1 758.142 72.641 A 26.193 26.193 0 0 1 756.299 72.706 Q 751.465 72.706 747.119 71.216 A 24.248 24.248 0 0 1 739.355 66.871 A 19.016 19.016 0 0 1 735.025 61.625 A 23.334 23.334 0 0 1 733.936 59.449 A 23.788 23.788 0 0 1 732.11 52.486 A 29.507 29.507 0 0 1 731.934 49.219 A 22.205 22.205 0 0 1 738.534 33.05 A 26.804 26.804 0 0 1 738.745 32.837 A 22.886 22.886 0 0 1 755.254 26.076 A 29.416 29.416 0 0 1 755.566 26.075 A 29.651 29.651 0 0 1 762.965 26.966 A 24.933 24.933 0 0 1 768.164 28.931 Q 773.73 31.788 776.953 37.208 A 22.981 22.981 0 0 1 780.01 46.585 A 28.833 28.833 0 0 1 780.176 49.708 Z M 199.121 29.493 L 196.387 31.69 Q 192.432 26.758 186.67 23.926 Q 180.908 21.094 174.365 21.094 A 27.493 27.493 0 0 0 163.452 23.316 A 28.407 28.407 0 0 0 155.068 28.74 A 27.147 27.147 0 0 0 154.468 29.322 A 28.161 28.161 0 0 0 148.602 37.983 A 31.911 31.911 0 0 0 148.462 38.306 A 27.493 27.493 0 0 0 146.24 49.219 A 27.493 27.493 0 0 0 148.462 60.132 A 28.407 28.407 0 0 0 153.886 68.517 A 27.147 27.147 0 0 0 154.468 69.117 A 28.161 28.161 0 0 0 163.129 74.982 A 31.911 31.911 0 0 0 163.452 75.123 A 27.493 27.493 0 0 0 174.365 77.344 Q 180.908 77.344 186.67 74.512 Q 192.432 71.68 196.387 66.749 L 199.023 69.044 A 31.63 31.63 0 0 1 188.135 77.711 A 30.951 30.951 0 0 1 174.365 80.86 A 30.878 30.878 0 0 1 162.061 78.345 A 32.416 32.416 0 0 1 153.628 73.138 A 30.17 30.17 0 0 1 151.978 71.607 A 31.566 31.566 0 0 1 145.643 62.43 A 36.155 36.155 0 0 1 145.239 61.524 A 30.878 30.878 0 0 1 142.725 49.219 A 30.878 30.878 0 0 1 145.239 36.915 A 32.416 32.416 0 0 1 150.446 28.482 A 30.17 30.17 0 0 1 151.978 26.832 A 31.566 31.566 0 0 1 161.155 20.497 A 36.155 36.155 0 0 1 162.061 20.093 A 30.878 30.878 0 0 1 174.365 17.579 A 31.013 31.013 0 0 1 188.208 20.753 A 31.578 31.578 0 0 1 199.121 29.493 Z M 622.9 84.376 L 585.693 20.118 L 585.693 84.376 L 582.178 84.376 L 582.178 14.063 L 586.377 14.063 L 626.953 84.376 L 622.9 84.376 Z M 647.559 84.376 L 606.982 14.063 L 611.084 14.063 L 648.193 78.272 L 648.193 14.063 L 651.709 14.063 L 651.709 84.376 L 647.559 84.376 Z M 237.793 54.297 L 237.793 50.782 L 258.984 50.782 A 11.083 11.083 0 0 0 262.922 50.102 A 10.022 10.022 0 0 0 266.113 48.145 A 8.603 8.603 0 0 0 268.785 43.375 A 12.913 12.913 0 0 0 269.043 40.723 A 7.786 7.786 0 0 0 267.326 35.862 A 11.274 11.274 0 0 0 265.991 34.424 A 10.097 10.097 0 0 0 258.984 31.641 L 228.809 31.641 L 228.809 84.376 L 225.293 84.376 L 225.293 28.126 L 258.984 28.126 Q 264.404 28.126 268.481 31.934 A 13.856 13.856 0 0 1 271.102 35.189 A 11 11 0 0 1 272.559 40.723 A 15.724 15.724 0 0 1 271.979 45.103 A 11.914 11.914 0 0 1 268.604 50.611 Q 264.648 54.297 258.984 54.297 L 237.793 54.297 Z M 548.877 84.376 L 548.877 49.708 A 16.238 16.238 0 0 0 548.421 45.745 A 11.009 11.009 0 0 0 545.02 40.04 Q 541.162 36.622 534.814 36.622 A 12.844 12.844 0 0 0 525.586 40.333 A 12.607 12.607 0 0 0 522.663 44.479 A 11.963 11.963 0 0 0 521.729 49.219 A 18.868 18.868 0 0 0 521.924 51.996 A 14.349 14.349 0 0 0 522.51 54.468 A 13.059 13.059 0 0 0 523.398 56.532 A 9.879 9.879 0 0 0 524.634 58.326 A 11.367 11.367 0 0 0 527.832 60.865 A 14.703 14.703 0 0 0 531.714 62.305 A 19.568 19.568 0 0 0 534.87 62.716 A 22.925 22.925 0 0 0 536.035 62.745 Q 541.602 62.745 546.191 60.01 L 546.191 63.526 Q 541.455 66.016 535.986 66.016 A 23.112 23.112 0 0 1 530.946 65.481 A 20.721 20.721 0 0 1 529.37 65.064 A 17.963 17.963 0 0 1 523.73 62.183 A 12.378 12.378 0 0 1 520.679 58.771 A 15.8 15.8 0 0 1 519.702 56.91 A 16.945 16.945 0 0 1 518.44 52.462 A 22.273 22.273 0 0 1 518.213 49.219 A 15.76 15.76 0 0 1 519.972 41.769 A 16.191 16.191 0 0 1 522.949 37.794 Q 527.686 33.106 534.814 33.106 A 22.788 22.788 0 0 1 540.393 33.754 A 16.371 16.371 0 0 1 547.534 37.525 A 14.522 14.522 0 0 1 552.079 45.981 A 21.21 21.21 0 0 1 552.393 49.708 L 552.393 84.376 L 548.877 84.376 Z M 769.629 84.376 L 769.629 49.708 A 16.238 16.238 0 0 0 769.173 45.745 A 11.009 11.009 0 0 0 765.771 40.04 Q 761.914 36.622 755.566 36.622 A 12.844 12.844 0 0 0 746.338 40.333 A 12.607 12.607 0 0 0 743.415 44.479 A 11.963 11.963 0 0 0 742.48 49.219 A 18.868 18.868 0 0 0 742.676 51.996 A 14.349 14.349 0 0 0 743.262 54.468 A 13.059 13.059 0 0 0 744.15 56.532 A 9.879 9.879 0 0 0 745.386 58.326 A 11.367 11.367 0 0 0 748.584 60.865 A 14.703 14.703 0 0 0 752.466 62.305 A 19.568 19.568 0 0 0 755.622 62.716 A 22.925 22.925 0 0 0 756.787 62.745 Q 762.354 62.745 766.943 60.01 L 766.943 63.526 Q 762.207 66.016 756.738 66.016 A 23.112 23.112 0 0 1 751.698 65.481 A 20.721 20.721 0 0 1 750.122 65.064 A 17.963 17.963 0 0 1 744.482 62.183 A 12.378 12.378 0 0 1 741.431 58.771 A 15.8 15.8 0 0 1 740.454 56.91 A 16.945 16.945 0 0 1 739.192 52.462 A 22.273 22.273 0 0 1 738.965 49.219 A 15.76 15.76 0 0 1 740.724 41.769 A 16.191 16.191 0 0 1 743.701 37.794 Q 748.438 33.106 755.566 33.106 A 22.788 22.788 0 0 1 761.145 33.754 A 16.371 16.371 0 0 1 768.286 37.525 A 14.522 14.522 0 0 1 772.831 45.981 A 21.21 21.21 0 0 1 773.145 49.708 L 773.145 84.376 L 769.629 84.376 Z M 193.604 33.887 L 190.82 36.036 A 20.556 20.556 0 0 0 183.569 30.225 Q 179.248 28.126 174.365 28.126 A 20.259 20.259 0 0 0 159.642 34.134 A 24.575 24.575 0 0 0 159.448 34.327 Q 153.271 40.528 153.271 49.219 A 20.321 20.321 0 0 0 159.257 63.918 A 24.812 24.812 0 0 0 159.448 64.112 A 20.261 20.261 0 0 0 174.093 70.312 A 24.469 24.469 0 0 0 174.365 70.313 Q 179.248 70.313 183.594 68.189 A 20.741 20.741 0 0 0 190.869 62.354 L 193.555 64.6 Q 190.137 68.897 185.107 71.363 A 24.079 24.079 0 0 1 174.365 73.829 A 24.13 24.13 0 0 1 162.012 70.533 Q 156.348 67.237 153.052 61.573 A 24.13 24.13 0 0 1 149.756 49.219 A 24.13 24.13 0 0 1 153.052 36.866 Q 156.348 31.202 162.012 27.906 A 24.13 24.13 0 0 1 174.365 24.61 A 24.233 24.233 0 0 1 185.132 27.076 Q 190.186 29.542 193.604 33.887 Z M 235.84 38.672 L 235.84 84.376 L 232.324 84.376 L 232.324 35.157 L 258.984 35.157 A 7.584 7.584 0 0 1 261.439 35.541 A 6.569 6.569 0 0 1 263.623 36.793 A 5.841 5.841 0 0 1 264.847 38.216 A 4.79 4.79 0 0 1 265.527 40.723 A 9.419 9.419 0 0 1 265.203 43.313 Q 264.371 46.216 261.407 46.987 A 9.64 9.64 0 0 1 258.984 47.266 L 237.793 47.266 L 237.793 43.751 L 258.984 43.751 Q 261.387 43.751 261.883 41.844 A 4.46 4.46 0 0 0 262.012 40.723 A 1.479 1.479 0 0 0 261.643 39.753 Q 261.435 39.503 261.108 39.283 Q 260.205 38.672 258.984 38.672 L 235.84 38.672 Z M 639.355 84.376 L 598.73 14.063 L 602.881 14.063 L 643.555 84.376 L 639.355 84.376 Z M 631.152 84.376 L 590.43 14.063 L 594.531 14.063 L 635.254 84.376 L 631.152 84.376 Z M 188.135 38.282 L 185.303 40.43 Q 181.055 35.157 174.365 35.157 Q 168.555 35.157 164.429 39.283 A 13.529 13.529 0 0 0 160.304 49.038 A 16.258 16.258 0 0 0 160.303 49.219 Q 160.303 55.03 164.429 59.156 A 13.529 13.529 0 0 0 174.184 63.281 A 16.258 16.258 0 0 0 174.365 63.282 A 13.61 13.61 0 0 0 180.493 61.866 Q 183.35 60.45 185.352 57.96 L 188.086 60.254 Q 185.645 63.331 182.031 65.064 Q 178.418 66.797 174.365 66.797 A 16.914 16.914 0 0 1 162.1 61.806 A 20.495 20.495 0 0 1 161.938 61.646 Q 156.787 56.495 156.787 49.219 A 16.914 16.914 0 0 1 161.779 36.954 A 20.495 20.495 0 0 1 161.938 36.793 Q 167.09 31.641 174.365 31.641 Q 178.467 31.641 182.08 33.423 Q 185.693 35.206 188.135 38.282 Z M 88.428 14.063 L 88.428 84.376 L 84.912 84.376 L 84.912 14.063 L 88.428 14.063 Z M 81.396 14.063 L 81.396 84.376 L 77.881 84.376 L 77.881 14.063 L 81.396 14.063 Z M 74.365 14.063 L 74.365 84.376 L 70.85 84.376 L 70.85 14.063 L 74.365 14.063 Z M 311.963 14.063 L 311.963 84.376 L 308.447 84.376 L 308.447 14.063 L 311.963 14.063 Z M 304.932 14.063 L 304.932 84.376 L 301.416 84.376 L 301.416 14.063 L 304.932 14.063 Z M 297.9 14.063 L 297.9 84.376 L 294.385 84.376 L 294.385 14.063 L 297.9 14.063 Z M 589.209 84.376 L 589.209 29.786 L 592.725 36.231 L 592.725 84.376 L 589.209 84.376 Z M 644.678 14.063 L 644.678 68.165 L 641.162 62.208 L 641.162 14.063 L 644.678 14.063 Z M 412.207 17.579 L 359.473 17.579 L 359.473 14.063 L 412.207 14.063 L 412.207 17.579 Z M 412.207 24.61 L 359.473 24.61 L 359.473 21.094 L 412.207 21.094 L 412.207 24.61 Z M 412.207 31.641 L 359.473 31.641 L 359.473 28.126 L 412.207 28.126 L 412.207 31.641 Z M 712.012 17.579 L 659.277 17.579 L 659.277 14.063 L 712.012 14.063 L 712.012 17.579 Z M 712.012 24.61 L 659.277 24.61 L 659.277 21.094 L 712.012 21.094 L 712.012 24.61 Z M 712.012 31.641 L 659.277 31.641 L 659.277 28.126 L 712.012 28.126 L 712.012 31.641 Z M 373.535 84.376 L 373.535 33.546 L 377.051 33.546 L 377.051 84.376 L 373.535 84.376 Z M 394.629 84.376 L 394.629 33.546 L 398.145 33.546 L 398.145 84.376 L 394.629 84.376 Z M 387.598 84.376 L 387.598 33.546 L 391.113 33.546 L 391.113 84.376 L 387.598 84.376 Z M 380.566 84.376 L 380.566 33.546 L 384.082 33.546 L 384.082 84.376 L 380.566 84.376 Z M 673.34 84.376 L 673.34 33.546 L 676.855 33.546 L 676.855 84.376 L 673.34 84.376 Z M 694.434 84.376 L 694.434 33.546 L 697.949 33.546 L 697.949 84.376 L 694.434 84.376 Z M 687.402 84.376 L 687.402 33.546 L 690.918 33.546 L 690.918 84.376 L 687.402 84.376 Z M 680.371 84.376 L 680.371 33.546 L 683.887 33.546 L 683.887 84.376 L 680.371 84.376 Z M 637.646 14.063 L 637.646 56.006 L 634.131 49.61 L 634.131 14.063 L 637.646 14.063 Z M 596.24 84.376 L 596.24 42.432 L 599.756 48.829 L 599.756 84.376 L 596.24 84.376 Z" vector-effect="non-scaling-stroke"/></g></svg>